<svg width="12" height="9" viewBox="0 0 12 9" fill="none" xmlns="http://www.w3.org/2000/svg">
<path d="M6.37383 8.31106L11.8574 1.52225C11.9489 1.40898 12 1.25848 12 1.10198C12 0.945487 11.9489 0.794995 11.8574 0.68172L11.8512 0.674411C11.8068 0.619307 11.7534 0.575429 11.6942 0.545446C11.635 0.515462 11.5712 0.5 11.5068 0.5C11.4424 0.5 11.3786 0.515462 11.3194 0.545446C11.2602 0.575429 11.2068 0.619307 11.1624 0.674411L5.99897 7.06732L0.837607 0.674411C0.79323 0.619307 0.739813 0.575429 0.680606 0.545446C0.621399 0.515462 0.55764 0.5 0.493207 0.5C0.428775 0.5 0.365016 0.515462 0.305809 0.545446C0.246602 0.575429 0.193185 0.619307 0.148807 0.674411L0.142611 0.68172C0.0510683 0.794995 9.53674e-07 0.945487 9.53674e-07 1.10198C9.53674e-07 1.25848 0.0510683 1.40898 0.142611 1.52225L5.62617 8.31106C5.67439 8.37077 5.73239 8.4183 5.79665 8.45078C5.86091 8.48325 5.93009 8.5 6 8.5C6.06991 8.5 6.13909 8.48325 6.20335 8.45078C6.26761 8.4183 6.32561 8.37077 6.37383 8.31106Z" fill="black"/>
</svg>
